<svg version="1.1" id="Layer_1" xmlns="http://www.w3.org/2000/svg" x="0" y="0" viewBox="0 0 92.26 122.88" style="enable-background:new 0 0 92.26 122.88" xml:space="preserve"><path d="M47.49 116.85c6.31-4.01 11.98-8.87 16.92-14.29 10.73-11.75 17.97-26.11 20.87-40.2 2.88-13.91 1.52-27.54-4.85-38.06-1.81-3.02-4.08-5.78-6.78-8.26-7.74-7.05-16.6-10.41-25.52-10.5-9.37-.07-18.87 3.45-27.27 10.14-3.58 2.86-6.53 6.15-8.82 9.78-5.9 9.28-7.69 20.8-5.74 32.85 1.97 12.23 7.78 25.02 17.04 36.61 6.44 8.08 14.54 15.58 24.18 21.91l-.03.02zm-1.36-93.01L22.76 46.73l5.7 2.99 17.52-18.39L63.8 49.72l5.7-2.99-23.37-22.89zM29.71 51.2l16.45-16.45 16.4 16.45v16.14H50.58v-11.4h-8.99v11.4H29.71V51.2zm38.81 55.07c-5.6 6.12-12.09 11.61-19.42 16.06-.88.66-2.13.75-3.13.11-10.8-6.87-19.85-15.13-26.99-24.09C9.15 86.02 2.94 72.34.83 59.16-1.33 45.8.69 32.96 7.34 22.48a45.03 45.03 0 0 1 10.07-11.14C26.78 3.88 37.51-.07 48.17 0c10.28.09 20.42 3.9 29.22 11.93 3.09 2.81 5.67 5.99 7.78 9.48 7.15 11.77 8.69 26.81 5.56 42.01-3.11 15.04-10.8 30.33-22.19 42.8l-.02.05z" style="fill-rule:evenodd;clip-rule:evenodd"/></svg>